<svg width="46" height="46" viewBox="0 0 46 46" fill="none" xmlns="http://www.w3.org/2000/svg">
<circle cx="23" cy="23" r="23" fill="white"/>
<path d="M33 19.3901C33.0006 19.2331 32.9382 19.0825 32.8268 18.9719L27.8159 14.0001C27.5868 13.7728 27.217 13.7735 26.9888 14.0017L25.5327 15.4579C24.682 15.3773 23.8141 15.4669 23.0003 15.7195C22.1852 15.4666 21.3191 15.3771 20.4673 15.4579L19.0112 14.0018C18.783 13.7736 18.4132 13.7728 18.1841 14.0001L13.1732 18.9719C13.0618 19.0825 12.9994 19.2332 13 19.3901C13.0006 19.5471 13.0642 19.6973 13.1765 19.8069L14.6664 21.2626C14.5842 22.1373 14.6813 23.0305 14.9511 23.8639C15.1216 24.3904 15.3551 24.8843 15.6482 25.3423L15.3879 25.6027C14.7025 26.288 14.7025 27.4032 15.3879 28.0886C15.5497 28.2503 15.7356 28.3734 15.9339 28.4588C15.5502 29.1301 15.6441 30.0021 16.2166 30.5745C16.7923 31.1502 17.6631 31.2414 18.3316 30.858C18.4185 31.0589 18.5431 31.2437 18.7025 31.4031C19.3884 32.089 20.5036 32.088 21.1884 31.4031L21.3428 31.2487L21.7006 31.6065C21.7202 31.6262 21.741 31.6443 21.7627 31.6605C22.094 31.9891 22.5331 32.1699 23.0001 32.1699C23.4679 32.1699 23.9079 31.9884 24.2395 31.6586C24.5671 31.3412 24.451 31.4552 24.6574 31.2488C24.8608 31.4522 25.27 31.918 26.0547 31.918C26.5243 31.918 26.9657 31.7352 27.2977 31.4032C27.4572 31.2436 27.5819 31.0587 27.6688 30.8577C28.3425 31.2422 29.2129 31.1452 29.7836 30.5745C30.356 30.0021 30.45 29.13 30.0663 28.4588C30.2646 28.3734 30.4505 28.2503 30.6122 28.0886C31.2993 27.4016 31.2993 26.2897 30.6122 25.6027L30.3508 25.3412C31.1168 24.1384 31.4676 22.6903 31.3336 21.2626L32.8237 19.8069C32.9358 19.6973 32.9994 19.5471 33 19.3901ZM16.2165 27.26C15.9881 27.0315 15.9881 26.6598 16.2165 26.4313L16.3736 26.2742C16.4232 26.3272 16.4736 26.3796 16.5252 26.4313L17.1995 27.1056L17.0452 27.26C16.8167 27.4884 16.445 27.4884 16.2165 27.26ZM17.8738 29.7459C17.6448 29.9749 17.2742 29.9749 17.0452 29.7459C16.8161 29.5168 16.8161 29.1463 17.0452 28.9172L18.0282 27.9342L18.8568 28.7628L17.8738 29.7459ZM20.3597 30.5745C20.1312 30.803 19.7595 30.803 19.5311 30.5745C19.4204 30.4639 19.3594 30.3167 19.3594 30.1602C19.3594 30.0037 19.4204 29.8566 19.5311 29.7459C19.5311 29.7459 19.5311 29.7459 19.5311 29.7458L19.6854 29.5915L20.5141 30.4202L20.3597 30.5745ZM29.7835 27.26C29.555 27.4885 29.1833 27.4885 28.9548 27.26C28.9548 27.26 28.9548 27.26 28.9548 27.26L24.8116 23.1168C24.5829 22.8879 24.2118 22.8879 23.983 23.1168C23.7542 23.3456 23.7542 23.7166 23.983 23.9454L28.9548 28.9172C29.1833 29.1457 29.1833 29.5174 28.9548 29.7459C28.7264 29.9744 28.3547 29.9743 28.1262 29.7459C27.8522 29.4719 23.4469 25.0666 23.1543 24.774C22.9255 24.5452 22.5545 24.5452 22.3257 24.774C22.0969 25.0028 22.0969 25.3738 22.3257 25.6027L26.4693 29.7462C26.6979 29.9752 26.6979 30.3455 26.4689 30.5745C26.2399 30.8035 25.8693 30.8035 25.6402 30.5745L21.4971 26.4313C21.2683 26.2025 20.8973 26.2025 20.6684 26.4313C20.4396 26.6602 20.4396 27.0311 20.6684 27.26L23.8286 30.4202C23.6384 30.6104 23.7242 30.5261 23.4209 30.82C23.4186 30.8221 23.4165 30.8243 23.4143 30.8264C23.3036 30.9371 23.1564 30.9981 23 30.9981C22.8435 30.9981 22.6964 30.9371 22.5857 30.8265C22.5836 30.8243 22.5814 30.8221 22.5791 30.82C22.2306 30.4823 17.7277 25.9764 17.3539 25.6027C16.1698 24.4187 15.6261 22.7875 15.8621 21.1273C15.8884 20.9425 15.825 20.7562 15.6914 20.6258L14.4211 19.3846L18.5952 15.243L19.8395 16.4873C19.9698 16.6177 20.1538 16.6791 20.3363 16.6531C20.6241 16.6122 20.915 16.5959 21.2053 16.6028C20.9065 16.814 20.6241 17.0518 20.3597 17.3163C19.6365 18.0395 17.6798 19.9962 17.0452 20.6309C16.3582 21.3179 16.3581 22.4297 17.0452 23.1168C17.3878 23.4595 17.838 23.6308 18.2881 23.6308C18.7382 23.6308 19.1884 23.4595 19.5311 23.1168L21.8818 20.7661C22.6484 21.0392 23.4677 21.0722 24.2361 20.884L29.7835 26.4314C30.0125 26.6604 30.0125 27.031 29.7835 27.26ZM30.3086 20.6257C30.175 20.7562 30.1116 20.9425 30.1379 21.1273C30.3029 22.2878 30.0707 23.4796 29.4974 24.4879L25.4058 20.3964C25.6759 20.2308 25.9296 20.0327 26.1602 19.8022C26.389 19.5734 26.389 19.2024 26.1602 18.9736C25.9314 18.7447 25.5604 18.7447 25.3316 18.9736C24.4549 19.8502 23.1148 20.0804 21.9967 19.5464C21.7728 19.4394 21.5054 19.4852 21.3298 19.6608L18.7025 22.2882C18.474 22.5166 18.1024 22.5167 17.8738 22.2882C17.7631 22.1775 17.7022 22.0303 17.7022 21.8738C17.7022 21.7173 17.7631 21.5702 17.8738 21.4595C18.5591 20.7742 20.5103 18.823 21.1884 18.145C21.1884 18.1449 21.1884 18.1448 21.1885 18.1448C22.3648 16.9686 23.9943 16.4159 25.6638 16.6531C25.8461 16.6791 26.0303 16.6177 26.1605 16.4873L27.4048 15.243L31.5789 19.3846L30.3086 20.6257Z" fill="black"/>
</svg>
