<svg width="46" height="46" viewBox="0 0 46 46" fill="none" xmlns="http://www.w3.org/2000/svg">
<circle cx="23" cy="23" r="23" fill="white"/>
<path d="M25.803 25.196L28.941 23.3844C29.2212 23.2226 29.3173 22.8643 29.1555 22.584C28.9937 22.3038 28.6353 22.2077 28.3551 22.3696L25.2171 24.1812C24.9368 24.343 24.8408 24.7013 25.0026 24.9816C25.1387 25.2174 25.4807 25.3822 25.803 25.196Z" fill="black"/>
<path d="M31.4454 17.7855L23.2925 13.0785C23.1112 12.9738 22.8879 12.9738 22.7066 13.0785L14.5537 17.7855C14.3724 17.8902 14.2607 18.0836 14.2607 18.293V27.707C14.2607 27.9164 14.3724 28.1098 14.5537 28.2145L22.7066 32.9215C22.7972 32.9738 22.8984 33 22.9996 33C23.1007 33 23.2019 32.9738 23.2925 32.9215L31.4454 28.2145C31.6267 28.1098 31.7384 27.9164 31.7384 27.707V18.293C31.7384 18.0836 31.6267 17.8902 31.4454 17.7855ZM27.2659 16.7255L20.2848 20.756L18.7392 19.8636L25.7202 15.8331L27.2659 16.7255ZM19.6989 21.7709V23.5506L18.1511 22.6569L18.1525 20.878L19.6989 21.7709ZM22.9996 14.2625L24.5482 15.1566L17.5672 19.1871L16.0186 18.293L22.9996 14.2625ZM22.4136 31.3992L15.4326 27.3687V19.3078L16.9812 20.2018L16.9789 22.9945C16.9788 23.2039 17.0905 23.3976 17.2719 23.5024L19.9919 25.073C20.297 25.2491 20.5722 25.0763 20.5779 25.073C20.7592 24.9683 20.8708 24.7749 20.8708 24.5655V22.4475L22.4136 23.3383V31.3992ZM22.9996 22.3234L21.4566 21.4327L28.4377 17.4022L29.9805 18.293L22.9996 22.3234ZM30.5665 27.3687L23.5855 31.3992V23.3383L30.5665 19.3078V27.3687Z" fill="black"/>
<path d="M28.3551 25.5075L25.2171 27.3191C24.9369 27.4809 24.8408 27.8393 25.0026 28.1195C25.1403 28.3579 25.4829 28.5189 25.803 28.334L28.941 26.5225C29.2213 26.3606 29.3173 26.0023 29.1555 25.7221C28.9937 25.4418 28.6354 25.3458 28.3551 25.5075Z" fill="black"/>
</svg>
