<svg width="46" height="46" viewBox="0 0 46 46" fill="none" xmlns="http://www.w3.org/2000/svg">
<circle cx="23" cy="23" r="23" fill="white"/>
<path d="M23.3906 32H22.6094C21.317 32 20.2656 30.9486 20.2656 29.6562V29.2628C20.2656 29.1593 20.2004 29.0654 20.0995 29.0238L20.0852 29.0179C19.9839 28.9758 19.8711 28.9959 19.7979 29.0691L19.5197 29.3473C19.0771 29.79 18.4885 30.0338 17.8624 30.0338C17.2364 30.0338 16.6478 29.79 16.2051 29.3473L15.6527 28.7948C15.21 28.3522 14.9662 27.7637 14.9662 27.1376C14.9662 26.5116 15.21 25.923 15.6527 25.4803L15.9309 25.2021C16.0041 25.1289 16.0242 25.0161 15.9821 24.9148L15.9763 24.9005C15.9346 24.7996 15.8407 24.7344 15.7373 24.7344H15.3438C14.0514 24.7344 13 23.683 13 22.3906V21.6094C13 20.317 14.0514 19.2656 15.3438 19.2656H15.7372C15.8407 19.2656 15.9346 19.2004 15.9762 19.0995L15.9821 19.0852C16.0242 18.9839 16.0041 18.8711 15.9309 18.798L15.6527 18.5197C15.21 18.0771 14.9662 17.4885 14.9662 16.8625C14.9662 16.2364 15.21 15.6478 15.6527 15.2052L16.2051 14.6527C16.6478 14.21 17.2364 13.9662 17.8624 13.9662C18.4885 13.9662 19.0771 14.21 19.5197 14.6527L19.7979 14.9309C19.8711 15.0041 19.9838 15.0242 20.0852 14.9821L20.0996 14.9763C20.2005 14.9346 20.2657 14.8407 20.2657 14.7373V14.3438C20.2657 13.0514 21.3171 12 22.6094 12H23.3907C24.683 12 25.7344 13.0514 25.7344 14.3438V14.7372C25.7344 14.8407 25.7996 14.9346 25.9005 14.9762L25.9149 14.9821C26.0161 15.0242 26.1289 15.0041 26.2021 14.9309L26.4803 14.6527C26.923 14.21 27.5115 13.9662 28.1376 13.9662C28.7636 13.9662 29.3522 14.21 29.7949 14.6527L30.3473 15.2052C30.79 15.6478 31.0338 16.2363 31.0338 16.8624C31.0338 17.4884 30.79 18.077 30.3473 18.5197L30.0691 18.7979C29.9959 18.8711 29.9758 18.9839 30.0179 19.0852L30.0238 19.0995C30.0654 19.2004 30.1593 19.2656 30.2628 19.2656H30.6562C31.9486 19.2656 33 20.317 33 21.6093V22.3906C33 23.4606 32.2769 24.394 31.2416 24.6605C30.8236 24.768 30.3978 24.5164 30.2903 24.0986C30.1827 23.6807 30.4343 23.2548 30.8521 23.1473C31.1968 23.0586 31.4375 22.7475 31.4375 22.3906V21.6094C31.4375 21.1786 31.087 20.8281 30.6562 20.8281H30.2628C29.5244 20.8281 28.8637 20.3837 28.5796 19.696L28.5737 19.6818C28.2893 18.997 28.4421 18.2152 28.9642 17.6931L29.2424 17.4149C29.39 17.2673 29.4713 17.0711 29.4713 16.8625C29.4713 16.6537 29.39 16.4576 29.2425 16.31L28.69 15.7575C28.5425 15.61 28.3463 15.5287 28.1376 15.5287C27.9289 15.5287 27.7327 15.61 27.5852 15.7575L27.307 16.0358C26.7846 16.5579 26.003 16.7106 25.3154 16.4251L25.304 16.4204C24.6163 16.1364 24.1719 15.4757 24.1719 14.7372V14.3438C24.1719 13.913 23.8214 13.5625 23.3906 13.5625H22.6094C22.1786 13.5625 21.8281 13.913 21.8281 14.3438V14.7372C21.8281 15.4756 21.3837 16.1363 20.696 16.4204L20.6846 16.4251C19.9969 16.7107 19.2153 16.5579 18.6931 16.0358L18.4148 15.7576C18.2673 15.61 18.0711 15.5287 17.8624 15.5287C17.6537 15.5287 17.4576 15.61 17.31 15.7576L16.7576 16.31C16.61 16.4576 16.5287 16.6537 16.5287 16.8625C16.5287 17.0711 16.61 17.2673 16.7576 17.4149L17.0358 17.6931C17.5579 18.2152 17.7107 18.997 17.4251 19.6846L17.4204 19.696C17.1364 20.3837 16.4757 20.8281 15.7372 20.8281H15.3438C14.913 20.8281 14.5625 21.1786 14.5625 21.6094V22.3906C14.5625 22.8214 14.913 23.1719 15.3438 23.1719H15.7372C16.4756 23.1719 17.1363 23.6163 17.4204 24.304L17.4251 24.3154C17.7107 25.003 17.5579 25.7847 17.0358 26.3069L16.7575 26.5852C16.61 26.7327 16.5287 26.9289 16.5287 27.1375C16.5287 27.3462 16.61 27.5424 16.7575 27.69L17.31 28.2425C17.4575 28.39 17.6537 28.4713 17.8624 28.4713C18.0711 28.4713 18.2673 28.39 18.4148 28.2425L18.693 27.9642C19.2154 27.442 19.997 27.2894 20.6846 27.5749L20.696 27.5796C21.3837 27.8636 21.8281 28.5243 21.8281 29.2628V29.6562C21.8281 30.087 22.1786 30.4375 22.6094 30.4375H23.3906C23.7339 30.4375 24.0336 30.2178 24.1363 29.8909C24.2656 29.4792 24.7041 29.2505 25.1157 29.3796C25.5273 29.509 25.7562 29.9475 25.627 30.3591C25.3186 31.3406 24.42 32 23.3906 32ZM32.3305 31.2915C32.7622 30.8598 33 30.2858 33 29.6753C33 29.0648 32.7622 28.4908 32.3305 28.0591C32.3301 28.0587 32.3297 28.0583 32.3294 28.0579L27.2635 23.0132C27.4975 22.5037 27.6476 21.9142 27.6484 21.44C27.6501 20.429 27.2601 19.5037 26.5206 18.7642C25.6152 17.8588 24.2388 17.3189 22.837 17.3189C22.8341 17.3189 22.831 17.3189 22.828 17.3189C22.3745 17.3197 21.9432 17.3944 21.4706 17.5541C21.216 17.6401 21.0235 17.851 20.9609 18.1123C20.8984 18.3737 20.9745 18.6488 21.1625 18.8409L23.0446 20.7626L22.8093 21.7764L21.8126 22.0025L19.9016 20.0874C19.7108 19.8962 19.4348 19.817 19.1717 19.8782C18.9086 19.9394 18.6957 20.1321 18.6089 20.3879C18.4407 20.883 18.3586 21.3413 18.3579 21.7891C18.356 22.953 18.7213 24.1174 19.36 24.984C20.1327 26.0324 21.2378 26.6094 22.4725 26.6094C22.4746 26.6094 22.4769 26.6094 22.479 26.6094C22.91 26.6086 23.5134 26.4872 24.0516 26.2531L29.0981 31.2915C29.5298 31.7232 30.1038 31.9609 30.7143 31.9609C31.3248 31.9609 31.8989 31.7232 32.3305 31.2915ZM23.7354 24.6525C23.4119 24.8842 22.8123 25.0463 22.4764 25.0469C21.5434 25.0473 20.9513 24.5093 20.6177 24.0569C20.2739 23.5904 20.044 22.9909 19.958 22.356L21.0114 23.4116C21.2012 23.6018 21.4755 23.6811 21.7373 23.6217L23.6324 23.1918C23.9245 23.1256 24.1529 22.8982 24.2207 22.6066L24.6636 20.6986C24.7239 20.4387 24.6474 20.166 24.4607 19.9753L23.4323 18.9252C24.2073 19.04 24.9216 19.3748 25.4157 19.869C25.8614 20.3146 26.0869 20.8423 26.0859 21.4373C26.0854 21.75 25.9024 22.3518 25.6582 22.6892C25.4328 23.0006 25.4674 23.4296 25.7398 23.7008L31.2259 29.1641C31.3623 29.3006 31.4375 29.4821 31.4375 29.6752C31.4375 29.8684 31.3623 30.05 31.2257 30.1865C31.0891 30.3231 30.9075 30.3984 30.7143 30.3984C30.5212 30.3984 30.3396 30.3231 30.2025 30.1861L24.7423 24.7348C24.5911 24.5838 24.3913 24.5064 24.1901 24.5064C24.0316 24.5064 23.8723 24.5545 23.7354 24.6525Z" fill="black"/>
</svg>
