<svg width="27" height="25" viewBox="0 0 27 25" fill="none" xmlns="http://www.w3.org/2000/svg">
<path d="M13.5564 11.8937C12.228 11.8937 11.1475 10.9293 11.1475 9.74363C11.1475 8.55801 12.2284 7.59318 13.5564 7.59318C14.8844 7.59318 15.9654 8.55801 15.9654 9.74363C15.9654 10.1751 16.3124 10.5252 16.7399 10.5252C17.1675 10.5252 17.5145 10.1751 17.5145 9.74363C17.5145 7.94488 16.1439 6.44156 14.331 6.10236V4.34503C14.331 3.91361 13.984 3.56348 13.5564 3.56348C13.1289 3.56348 12.7819 3.91361 12.7819 4.34503V6.10236C10.969 6.44117 9.59837 7.94449 9.59837 9.74363C9.59837 11.7909 11.3741 13.4568 13.5564 13.4568C14.8848 13.4568 15.9654 14.4216 15.9654 15.6076C15.9654 16.7937 14.8848 17.7585 13.5564 17.7585C12.0863 17.7585 10.9907 16.9719 10.766 15.755C10.6874 15.3306 10.2823 15.05 9.8625 15.1301C9.4419 15.2091 9.16461 15.6174 9.24284 16.0418C9.56196 17.7683 10.9438 18.9949 12.7819 19.2645V20.6553C12.7819 21.0867 13.1289 21.4369 13.5564 21.4369C13.984 21.4369 14.331 21.0867 14.331 20.6553V19.2493C16.1435 18.9105 17.5145 17.4068 17.5145 15.6076C17.5141 13.5596 15.7384 11.8937 13.5564 11.8937Z" fill="black"/>
<path d="M19.7743 22.3173C19.5633 21.9426 19.09 21.8101 18.7182 22.0234C14.4945 24.4416 9.14253 23.7077 5.70381 20.2376C2.44053 16.9449 1.69849 12.059 3.47304 8.03867L4.60856 9.18443C4.7565 9.3341 4.9548 9.41342 5.15657 9.41342C5.2561 9.41342 5.35719 9.39389 5.45285 9.35403C5.74254 9.23289 5.93115 8.94801 5.93115 8.63187V4.211C5.93115 4.1598 5.92572 4.10861 5.91604 4.05781C5.91139 4.03476 5.90287 4.01326 5.89629 3.99099C5.88854 3.96442 5.88235 3.93784 5.87189 3.91205C5.86105 3.88587 5.84633 3.86203 5.83278 3.83702C5.82193 3.81709 5.81341 3.79638 5.80063 3.77723C5.7437 3.69165 5.67089 3.61779 5.58569 3.56035C5.56748 3.54824 5.54812 3.54003 5.52914 3.52948C5.50397 3.51541 5.47918 3.49978 5.45207 3.48845C5.42729 3.47829 5.40172 3.47243 5.37655 3.46461C5.3537 3.45758 5.33163 3.44859 5.30761 3.4439C5.25843 3.43413 5.20886 3.42905 5.1589 3.42866C5.15812 3.42866 5.15696 3.42827 5.15618 3.42827H0.774806C0.46149 3.42827 0.179158 3.61858 0.0590994 3.91049C-0.0609596 4.20279 0.00526652 4.53886 0.227182 4.76238L2.31079 6.86477C-0.0311388 11.5541 0.732979 17.4306 4.60856 21.3415C6.99076 23.7452 10.1758 25 13.3911 25C15.4801 25 17.5811 24.4705 19.4827 23.3814C19.8549 23.17 19.9854 22.6928 19.7743 22.3173Z" fill="black"/>
<path d="M26.517 20.2376L24.433 18.1348C26.7745 13.4455 26.0108 7.56895 22.1352 3.65805C18.2058 -0.306789 12.0898 -1.1454 7.26109 1.61779C6.88891 1.83077 6.75839 2.30791 6.96946 2.68344C7.18092 3.05898 7.6538 3.19068 8.02559 2.9777C12.2505 0.559566 17.602 1.29423 21.04 4.76317C24.3033 8.05625 25.0453 12.9422 23.2712 16.9621L22.1352 15.8163C21.9133 15.5924 21.5806 15.526 21.291 15.6467C21.0016 15.7679 20.813 16.0527 20.813 16.3689V20.7898C20.813 20.8409 20.8185 20.8921 20.8281 20.9429C20.8328 20.9664 20.8413 20.9879 20.8479 21.0105C20.8556 21.0367 20.8615 21.0633 20.8719 21.0887C20.8828 21.1157 20.8979 21.1399 20.9118 21.1653C20.9223 21.1844 20.9308 21.2048 20.9432 21.2231C21.0001 21.3091 21.0729 21.3826 21.1581 21.44C21.1767 21.4525 21.1965 21.4607 21.2154 21.4717C21.2406 21.4857 21.2646 21.501 21.2913 21.5119C21.3165 21.5225 21.3428 21.5283 21.3688 21.5361C21.3913 21.5428 21.4126 21.5514 21.4358 21.5561C21.4858 21.5662 21.5365 21.5713 21.5876 21.5713H25.9694C26.2827 21.5713 26.565 21.381 26.6851 21.0891C26.8051 20.7968 26.7389 20.4607 26.517 20.2376Z" fill="black"/>
</svg>
