<svg width="25" height="25" viewBox="0 0 25 25" fill="none" xmlns="http://www.w3.org/2000/svg">
<path d="M14.069 6.27603H10.1465C9.74199 6.27603 9.41406 6.60396 9.41406 7.00845V12.5521H8.57749C8.173 12.5521 7.84507 12.88 7.84507 13.2845C7.84507 13.689 8.173 14.0169 8.57749 14.0169H9.41406V15.6901H8.57749C8.173 15.6901 7.84507 16.018 7.84507 16.4225C7.84507 16.827 8.173 17.1549 8.57749 17.1549H9.41406V18.776C9.41406 19.1805 9.74199 19.5084 10.1465 19.5084C10.551 19.5084 10.8789 19.1805 10.8789 18.776V17.1549H14.069C14.4735 17.1549 14.8015 16.827 14.8015 16.4225C14.8015 16.018 14.4735 15.6901 14.069 15.6901H10.8789V14.0169H14.069C16.2032 14.0169 17.9395 12.2806 17.9395 10.1464C17.9395 7.95952 16.1581 6.27603 14.069 6.27603ZM14.069 12.5521H10.8789V7.74087H14.069C15.3875 7.74087 16.4747 8.80435 16.4747 10.1465C16.4746 11.4729 15.3955 12.5521 14.069 12.5521Z" fill="black"/>
<path d="M12.5 0C5.60747 0 0 5.60747 0 12.5C0 19.3925 5.60747 25 12.5 25C19.3925 25 25 19.3925 25 12.5C25 5.60747 19.3925 0 12.5 0ZM12.5 23.5352C6.41519 23.5352 1.46484 18.5848 1.46484 12.5C1.46484 6.41519 6.41519 1.46484 12.5 1.46484C18.5848 1.46484 23.5352 6.41519 23.5352 12.5C23.5352 18.5848 18.5848 23.5352 12.5 23.5352Z" fill="black"/>
</svg>
