<svg width="24" height="24" viewBox="0 0 24 24" fill="none" xmlns="http://www.w3.org/2000/svg">
<path d="M21.4286 12H2.57143M21.4286 12C22.2964 12 23 11.2964 23 10.4286V8.85714C23 7.98927 22.2964 7.28571 21.4286 7.28571H2.57143C1.70355 7.28571 1 7.98927 1 8.85714V10.4286C1 11.2964 1.70355 12 2.57143 12M21.4286 12V19.8571C21.4286 21.5929 20.0215 23 18.2857 23H5.71429C3.97853 23 2.57143 21.5929 2.57143 19.8571L2.57143 12M12 7.28571V5.71429M12 7.28571H6.83673C5.34895 7.28571 4.14286 6.07962 4.14286 4.59184V4.14286C4.14286 2.40711 5.54996 1 7.28571 1C9.88934 1 12 3.11066 12 5.71429M12 7.28571H17.1633C18.6511 7.28571 19.8571 6.07962 19.8571 4.59184V4.14286C19.8571 2.40711 18.45 1 16.7143 1C14.1107 1 12 3.11066 12 5.71429M12 7.28571V23" stroke="black" stroke-width="1.3"/>
</svg>
